<svg width="80" height="80" viewBox="0 0 80 80" fill="none" xmlns="http://www.w3.org/2000/svg">
<path d="M39.4657 3.39336C39.8882 2.86888 40.6882 2.86888 41.1107 3.39336L56.7323 22.785C57.2877 23.4744 56.7961 24.4989 55.9098 24.4989H24.6666C23.7803 24.4989 23.2887 23.4744 23.8441 22.785L39.4657 3.39336Z" fill="#D5EDF2"/>
<path d="M64.8259 23.427C64.3786 23.7361 63.7692 23.6552 63.4184 23.2401L53.6588 11.6936C52.8969 10.7922 53.9675 9.51284 54.9917 10.1007L69.4503 18.3998C70.1224 18.7856 70.1624 19.7389 69.5249 20.1795L64.8259 23.427Z" fill="#D5EDF2"/>
<path d="M16.2782 22.9001C16.7255 23.2093 17.3349 23.1284 17.6858 22.7133L27.4453 11.1668C28.2072 10.2654 27.1367 8.98602 26.1125 9.57391L11.6539 17.873C10.9817 18.2588 10.9418 19.2121 11.5792 19.6527L16.2782 22.9001Z" fill="#D5EDF2"/>
<path d="M37.4239 69.1146C37.4239 68.6039 37.0311 68.1606 36.5011 68.0733L21.0192 65.5227C19.8272 65.3263 19.2884 66.8515 20.3463 67.4277L35.8282 75.8598C36.5474 76.2515 37.4239 75.7771 37.4239 74.9962L37.4239 69.1146Z" fill="#D5EDF2"/>
<path d="M66.354 27.5887C65.9308 27.8446 65.7476 28.3781 65.9165 28.8628L70.96 43.3322C71.3558 44.4675 72.9684 44.2099 72.9705 43.0111L73 25.4742C73.0014 24.6382 72.1184 24.1033 71.4271 24.5213L66.354 27.5887Z" fill="#D5EDF2"/>
<path d="M13.646 27.5887C14.0692 27.8446 14.2524 28.3781 14.0835 28.8628L9.03995 43.3322C8.64424 44.4675 7.03157 44.2099 7.02955 43.0111L7 25.4742C6.99859 24.6382 7.88156 24.1033 8.57293 24.5213L13.646 27.5887Z" fill="#D5EDF2"/>
<path d="M43.6316 68.8697C43.6316 68.359 44.0244 67.9157 44.5544 67.8284L60.0363 65.2778C61.2283 65.0814 61.7671 66.6066 60.7092 67.1828L45.2273 75.615C44.5082 76.0066 43.6317 75.5322 43.6317 74.7513L43.6316 68.8697Z" fill="#D5EDF2"/>
<path d="M41.208 59.7455C40.8044 60.4612 39.772 60.4612 39.3684 59.7455L23.349 31.3377C22.9529 30.6353 23.4613 29.7672 24.2688 29.7672L56.3076 29.7672C57.1151 29.7672 57.6235 30.6353 57.2274 31.3377L41.208 59.7455Z" fill="#D5EDF2"/>
<path d="M72.0052 56.8755C72.249 57.503 71.8489 58.1947 71.1827 58.2977L46.5486 62.1068C45.6728 62.2422 45.0298 61.3049 45.473 60.5387L61.0946 33.5289C61.5377 32.7627 62.6723 32.8499 62.9928 33.6748L72.0052 56.8755Z" fill="#D5EDF2"/>
<path d="M9.1285 58.2977C8.46224 58.1947 8.06221 57.5031 8.30596 56.8756L17.3184 33.6749C17.6388 32.85 18.7735 32.7628 19.2166 33.529L34.8382 60.5387C35.2813 61.3049 34.6384 62.2422 33.7625 62.1068L9.1285 58.2977Z" fill="#D5EDF2"/>
</svg>
