<svg width="80" height="80" viewBox="0 0 80 80" fill="none" xmlns="http://www.w3.org/2000/svg">
<path fill-rule="evenodd" clip-rule="evenodd" d="M47.8932 8.82171C48.2697 8.30536 48.8702 8 49.5093 8H58.213C59.3175 8 60.213 8.89543 60.213 10C60.213 11.1046 59.3175 12 58.213 12H52.2523L56.2896 24.5691L59.9889 36.0858C60.9849 35.8791 62.0172 35.7705 63.0775 35.7705C72.0097 35.7705 78.9594 43.479 78.9594 52.6159C78.9594 61.7528 72.0097 69.4614 63.0775 69.4614C54.1453 69.4614 47.1956 61.7528 47.1956 52.6159C47.1956 46.0111 50.8271 40.1527 56.2139 37.4129L53.3068 28.3624L42.1912 52.8273C41.8668 53.5415 41.1548 54 40.3704 54H32.501C31.8414 62.518 25.1498 69.4614 16.6725 69.4614C7.74024 69.4614 0.790527 61.7528 0.790527 52.6159C0.790527 43.479 7.74024 35.7705 16.6725 35.7705C17.82 35.7705 18.9348 35.8977 20.0064 36.1389L24.2095 25.3016L20.4441 18.0723H18.1759C17.0714 18.0723 16.1759 17.1769 16.1759 16.0723C16.1759 14.9677 17.0714 14.0723 18.1759 14.0723H21.6574H29.4907C30.5953 14.0723 31.4907 14.9677 31.4907 16.0723C31.4907 17.1769 30.5953 18.0723 29.4907 18.0723H24.9541L27.6149 23.1807H51.6424L47.6051 10.6116C47.4097 10.0032 47.5167 9.33806 47.8932 8.82171ZM57.7762 42.2769C54.4878 44.2768 52.1956 48.0884 52.1956 52.6159C52.1956 59.3245 57.2284 64.4614 63.0775 64.4614C68.9265 64.4614 73.9594 59.3245 73.9594 52.6159C73.9594 45.9073 68.9265 40.7705 63.0775 40.7705C62.5549 40.7705 62.0389 40.8115 61.5323 40.891L64.9042 51.3884C65.242 52.44 64.6633 53.5664 63.6116 53.9042C62.56 54.242 61.4336 53.6633 61.0958 52.6116L57.7762 42.2769ZM37.0736 50H32.3623C31.5599 44.581 28.3052 39.9348 23.7579 37.528L26.6686 30.0231L37.0736 50ZM27.2909 50C26.5959 46.6197 24.5824 43.8452 21.9271 42.2487L18.9208 50H27.2909ZM14.1353 51.2768L18.1664 40.8831C17.6763 40.8088 17.1774 40.7705 16.6725 40.7705C10.8234 40.7705 5.79053 45.9073 5.79053 52.6159C5.79053 59.3245 10.8234 64.4614 16.6725 64.4614C22.1122 64.4614 26.846 60.0183 27.4819 54H16C15.3401 54 14.7226 53.6745 14.3498 53.13C13.9769 52.5855 13.8967 51.8921 14.1353 51.2768ZM49.4501 27.1807H29.6983L40.2477 47.435L49.4501 27.1807Z" fill="#D5EDF2"/>
</svg>
