<svg width="80" height="80" viewBox="0 0 80 80" fill="none" xmlns="http://www.w3.org/2000/svg">
<path fill-rule="evenodd" clip-rule="evenodd" d="M7 11.5033V40.3504C7 56.1542 25.9426 69.8405 38.8336 75.6315C39.889 76.1056 41.0961 76.0573 42.1234 75.525C58.9258 66.8196 73 54.4002 73 40.3504V11.5785C73 9.69114 71.6742 8.0645 69.8248 7.68777C45.593 2.75155 31.5287 2.80734 10.0848 7.63555C8.27764 8.04245 7 9.65084 7 11.5033ZM20.0716 27.6853C19.3644 28.7774 20.2604 30 21.5616 30H32.4384C33.7396 30 34.6356 28.7774 33.9284 27.6853C32.8345 25.9958 30.7488 24 27 24C23.2512 24 21.1655 25.9958 20.0716 27.6853ZM24.5394 45L55.4606 45C56.7548 45 57.668 46.1978 57.1597 47.388C55.4526 51.3858 50.7856 59 40 59C29.2144 59 24.5474 51.3858 22.8403 47.388C22.332 46.1978 23.2452 45 24.5394 45ZM46.0716 27.6853C45.3644 28.7774 46.2604 30 47.5616 30H58.4384C59.7396 30 60.6356 28.7774 59.9284 27.6853C58.8345 25.9958 56.7488 24 53 24C49.2512 24 47.1655 25.9958 46.0716 27.6853Z" fill="#D5EDF2"/>
</svg>
