<svg width="80" height="80" viewBox="0 0 80 80" fill="none" xmlns="http://www.w3.org/2000/svg">
<path d="M39.5 6C34.8342 6 31.4785 8.45213 29.5405 11.5317C27.8072 14.2859 27.0861 17.4806 26.9454 20.2785C21.656 22.8762 15.7966 25.4951 11.0789 28.1726C8.60423 29.5771 6.4467 30.9898 4.82263 32.5081C3.19856 34.026 2.0003 35.7355 2.0003 37.7522C2.0003 38.6103 2.42196 39.3097 2.89718 39.8229C3.3731 40.3361 3.94337 40.7346 4.59279 41.1067C5.89146 41.8509 7.52883 42.4712 9.32985 43.0078C12.0055 43.8052 15.002 44.398 17.6074 44.6515C15.016 49.0865 11.5672 53.16 8.54409 57.0632C5.05039 61.574 2.0003 65.9 2.0003 70.7058C2.0003 71.3923 1.9927 71.9283 2.05387 72.4667C2.11522 73.0051 2.27092 73.6773 2.81596 74.2098C3.36118 74.7426 4.02857 74.8857 4.57223 74.9444C5.11589 75.0036 5.66352 74.9966 6.36599 74.9966H25.6415C27.0408 74.9966 28.0654 75.0811 29.1193 74.4079C30.1735 73.7351 30.5578 72.816 31.3088 71.4429L31.324 71.4155L31.3379 71.387C31.3379 71.387 33.0181 67.9938 35.0229 64.6267C36.0252 62.9433 37.1133 61.2668 38.0598 60.0788C38.5333 59.4849 38.9764 59.0139 39.2954 58.7479C39.3929 58.6669 39.4371 58.6518 39.5 58.6175C39.5627 58.6518 39.6072 58.6669 39.7046 58.7479C40.0236 59.0139 40.4667 59.4849 40.9402 60.0788C41.8867 61.2668 42.9749 62.9433 43.9772 64.6267C45.9818 67.9938 47.6622 71.3868 47.6622 71.3868L47.676 71.4151L47.6912 71.4426C48.4422 72.8157 48.8231 73.7293 49.8703 74.404C50.9172 75.0785 51.9396 74.9961 53.3191 74.9961H72.6795C73.3707 74.9961 73.9099 75.0035 74.4497 74.9439C74.9894 74.8844 75.6591 74.7362 76.1986 74.2004C76.7377 73.6646 76.8871 72.9995 76.9468 72.4635C77.007 71.9276 76.9997 71.3918 76.9997 70.7053C76.9997 65.8995 73.9496 61.5735 70.4559 57.0625C67.433 53.1595 63.9842 49.086 61.3926 44.6508C63.998 44.3971 66.9946 43.8046 69.6702 43.0072C71.4712 42.4709 73.1086 41.8504 74.4072 41.1064C75.0567 40.7343 75.6269 40.3358 76.1025 39.8226C76.5782 39.3094 76.9997 38.61 76.9997 37.7518C76.9997 35.7351 75.8015 34.0257 74.1774 32.5077C72.5533 30.9895 70.3958 29.5768 67.9212 28.1723C63.2035 25.4948 57.344 22.8757 52.0546 20.2782C51.914 17.4806 51.1927 14.2856 49.4596 11.5317C47.5215 8.45195 44.1659 6 39.5 6Z" fill="#D5EDF2"/>
</svg>
