<svg width="100" height="100" viewBox="0 0 100 100" fill="none" xmlns="http://www.w3.org/2000/svg">
<mask id="mask0_94_146" style="mask-type:alpha" maskUnits="userSpaceOnUse" x="2" y="2" width="97" height="97">
<rect x="2" y="2" width="96.5562" height="96.5562" fill="#D9D9D9"/>
</mask>
<g mask="url(#mask0_94_146)">
<path d="M67.2443 89L65.9748 82.5588C65.1285 82.201 64.335 81.8252 63.5945 81.4316C62.8539 81.038 62.0957 80.5549 61.3199 79.9824L55.1839 81.9147L50.9521 74.6147L55.8186 70.3206C55.6776 69.3186 55.6071 68.3882 55.6071 67.5294C55.6071 66.6706 55.6776 65.7402 55.8186 64.7382L50.9521 60.4441L55.1839 53.1441L61.3199 55.0765C62.0957 54.5039 62.8539 54.0208 63.5945 53.6272C64.335 53.2336 65.1285 52.8578 65.9748 52.5L67.2443 46.0588H75.7078L76.9773 52.5C77.8237 52.8578 78.6171 53.2515 79.3577 53.6809C80.0982 54.1103 80.8564 54.6471 81.6322 55.2912L87.7683 53.1441L92 60.6588L87.1335 64.9529C87.2746 65.8118 87.3451 66.7064 87.3451 67.6368C87.3451 68.5672 87.2746 69.4618 87.1335 70.3206L92 74.6147L87.7683 81.9147L81.6322 79.9824C80.8564 80.5549 80.0982 81.038 79.3577 81.4316C78.6171 81.8252 77.8237 82.201 76.9773 82.5588L75.7078 89H67.2443ZM8 84.7059V72.6823C8 70.3206 8.5995 68.102 9.79849 66.0265C10.9975 63.951 12.6549 62.3765 14.7708 61.3029C18.3678 59.4422 22.4232 57.8676 26.937 56.5794C31.4509 55.2912 36.4232 54.6471 41.8539 54.6471H43.335C43.7582 54.6471 44.1814 54.7186 44.6045 54.8618C42.5592 60.0147 41.7128 65.1319 42.0655 70.2132C42.4181 75.2946 44.1108 80.1255 47.1436 84.7059H8ZM71.4761 76.1176C73.8035 76.1176 75.796 75.2767 77.4534 73.5949C79.1108 71.913 79.9395 69.8912 79.9395 67.5294C79.9395 65.1676 79.1108 63.1458 77.4534 61.464C75.796 59.7821 73.8035 58.9412 71.4761 58.9412C69.1486 58.9412 67.1562 59.7821 65.4987 61.464C63.8413 63.1458 63.0126 65.1676 63.0126 67.5294C63.0126 69.8912 63.8413 71.913 65.4987 73.5949C67.1562 75.2767 69.1486 76.1176 71.4761 76.1176ZM41.8539 50.3529C37.199 50.3529 33.2141 48.6711 29.8992 45.3074C26.5844 41.9436 24.927 37.9 24.927 33.1765C24.927 28.4529 26.5844 24.4093 29.8992 21.0456C33.2141 17.6819 37.199 16 41.8539 16C46.5088 16 50.4937 17.6819 53.8086 21.0456C57.1234 24.4093 58.7809 28.4529 58.7809 33.1765C58.7809 37.9 57.1234 41.9436 53.8086 45.3074C50.4937 48.6711 46.5088 50.3529 41.8539 50.3529Z" fill="#D5EDF2"/>
</g>
</svg>
