<svg width="100" height="100" viewBox="0 0 100 100" fill="none" xmlns="http://www.w3.org/2000/svg">
<mask id="mask0_94_150" style="mask-type:alpha" maskUnits="userSpaceOnUse" x="10" y="10" width="39" height="39">
<path d="M10.4688 10.9H48.6658V48.9238H10.4688V10.9Z" fill="#D9D9D9"/>
</mask>
<g mask="url(#mask0_94_150)">
<path d="M23.0015 45.975L22.3118 40.455C21.9382 40.3113 21.5862 40.1388 21.2557 39.9375C20.9252 39.7363 20.6019 39.5206 20.2858 39.2906L15.1562 41.4469L10.4146 33.2531L14.8545 29.8894C14.8257 29.6881 14.8114 29.4941 14.8114 29.3072V28.1428C14.8114 27.9559 14.8257 27.7619 14.8545 27.5606L10.4146 24.1969L15.1562 16.0031L20.2858 18.1594C20.6019 17.9294 20.9324 17.7138 21.2773 17.5125C21.6221 17.3113 21.9669 17.1388 22.3118 16.995L23.0015 11.475H32.4848L33.1745 16.995C33.5481 17.1388 33.9001 17.3113 34.2306 17.5125C34.5611 17.7138 34.8844 17.9294 35.2005 18.1594L40.3301 16.0031L45.0717 24.1969L40.6318 27.5606C40.6606 27.7619 40.6749 27.9559 40.6749 28.1428V29.3072C40.6749 29.4941 40.6462 29.6881 40.5887 29.8894L45.0286 33.2531L40.287 41.4469L35.2005 39.2906C34.8844 39.5206 34.5539 39.7363 34.209 39.9375C33.8642 40.1388 33.5193 40.3113 33.1745 40.455L32.4848 45.975H23.0015ZM27.8294 34.7625C29.4961 34.7625 30.9186 34.1731 32.0968 32.9944C33.2751 31.8156 33.8642 30.3925 33.8642 28.725C33.8642 27.0575 33.2751 25.6344 32.0968 24.4556C30.9186 23.2769 29.4961 22.6875 27.8294 22.6875C26.1339 22.6875 24.7042 23.2769 23.5403 24.4556C22.3765 25.6344 21.7945 27.0575 21.7945 28.725C21.7945 30.3925 22.3765 31.8156 23.5403 32.9944C24.7042 34.1731 26.1339 34.7625 27.8294 34.7625Z" fill="#D5EDF2"/>
</g>
<mask id="mask1_94_150" style="mask-type:alpha" maskUnits="userSpaceOnUse" x="49" y="49" width="41" height="41">
<path d="M49.3862 49.6413H89.0247V89.1H49.3862V49.6413Z" fill="#D9D9D9"/>
</mask>
<g mask="url(#mask1_94_150)">
<path d="M66.1647 88.525L65.452 82.821C65.066 82.6725 64.7022 82.4942 64.3607 82.2863C64.0192 82.0783 63.6852 81.8555 63.3585 81.6178L58.0579 83.846L53.1582 75.3791L57.7461 71.9032C57.7164 71.6953 57.7016 71.4947 57.7016 71.3016V70.0984C57.7016 69.9053 57.7164 69.7048 57.7461 69.4968L53.1582 66.021L58.0579 57.5541L63.3585 59.7822C63.6852 59.5445 64.0267 59.3217 64.383 59.1138C64.7393 58.9058 65.0957 58.7276 65.452 58.579L66.1647 52.875H75.9641L76.6768 58.579C77.0628 58.7276 77.4266 58.9058 77.7681 59.1138C78.1096 59.3217 78.4437 59.5445 78.7703 59.7822L84.0709 57.5541L88.9706 66.021L84.3827 69.4968C84.4124 69.7048 84.4273 69.9053 84.4273 70.0984V71.3016C84.4273 71.4947 84.3976 71.6953 84.3382 71.9032L88.9261 75.3791L84.0264 83.846L78.7703 81.6178C78.4437 81.8555 78.1022 82.0783 77.7458 82.2863C77.3895 82.4942 77.0332 82.6725 76.6768 82.821L75.9641 88.525H66.1647ZM71.1535 76.9388C72.8758 76.9388 74.3457 76.3298 75.5632 75.1117C76.7807 73.8937 77.3895 72.4231 77.3895 70.7C77.3895 68.9769 76.7807 67.5064 75.5632 66.2883C74.3457 65.0703 72.8758 64.4613 71.1535 64.4613C69.4015 64.4613 67.9241 65.0703 66.7215 66.2883C65.5188 67.5064 64.9175 68.9769 64.9175 70.7C64.9175 72.4231 65.5188 73.8937 66.7215 75.1117C67.9241 76.3298 69.4015 76.9388 71.1535 76.9388Z" fill="#D5EDF2"/>
</g>
<path fill-rule="evenodd" clip-rule="evenodd" d="M72.3427 13.2266C73.2972 12.357 74.7634 12.4399 75.6174 13.4119L89.5351 29.2509C90.3892 30.2228 90.3077 31.7157 89.3532 32.5854C88.3987 33.455 86.9325 33.3721 86.0784 32.4001L75.5759 20.4478C75.5512 20.602 75.5255 20.7587 75.4989 20.9179C74.926 24.3416 73.8999 28.9432 72.0805 33.5748C68.476 42.7505 61.412 52.7705 47.9917 52.7705C42.5898 52.7705 38.6519 54.6337 35.7017 57.3794C32.7011 60.172 30.6233 63.9752 29.2014 67.9454C27.9779 71.3613 27.275 74.8024 26.8731 77.6258L37.1462 67.1652C38.0519 66.243 39.5203 66.243 40.426 67.1652C41.3317 68.0874 41.3317 69.5827 40.426 70.5049L25.6669 85.5334C24.7612 86.4556 23.2928 86.4556 22.3871 85.5334L7.628 70.5049C6.72231 69.5827 6.72231 68.0874 7.628 67.1652C8.53369 66.243 10.0021 66.243 10.9078 67.1652L22.0772 78.5384C22.0844 78.4765 22.0917 78.4141 22.0992 78.3513C22.4869 75.1041 23.2659 70.7325 24.8438 66.3271C26.4174 61.9336 28.8331 57.3732 32.5725 53.8931C36.3624 50.366 41.4113 48.0475 47.9917 48.0475C58.5362 48.0475 64.4209 40.3562 67.7739 31.8207C69.2881 27.9661 70.2156 24.0865 70.7754 20.9921L59.8805 30.9181C58.9259 31.7878 57.4598 31.7048 56.6057 30.7329C55.7516 29.7609 55.8331 28.268 56.7876 27.3983L72.3427 13.2266Z" fill="#D5EDF2"/>
</svg>
