<svg width="100" height="100" viewBox="0 0 100 100" fill="none" xmlns="http://www.w3.org/2000/svg">
<g clip-path="url(#clip0_94_147)">
<mask id="mask0_94_147" style="mask-type:alpha" maskUnits="userSpaceOnUse" x="0" y="0" width="100" height="100">
<rect width="100" height="100" fill="#D9D9D9"/>
</mask>
<g mask="url(#mask0_94_147)">
<path d="M45.8333 90.5209L16.6667 73.75C15.3472 72.9861 14.3229 71.9792 13.5938 70.7292C12.8646 69.4792 12.5 68.0903 12.5 66.5625V33.4375C12.5 31.9097 12.8646 30.5208 13.5938 29.2708C14.3229 28.0208 15.3472 27.0139 16.6667 26.25L45.8333 9.47918C47.1528 8.71529 48.5417 8.33334 50 8.33334C51.4583 8.33334 52.8472 8.71529 54.1667 9.47918L83.3333 26.25C84.6528 27.0139 85.6771 28.0208 86.4063 29.2708C87.1354 30.5208 87.5 31.9097 87.5 33.4375V66.5625C87.5 68.0903 87.1354 69.4792 86.4063 70.7292C85.6771 71.9792 84.6528 72.9861 83.3333 73.75L54.1667 90.5209C52.8472 91.2847 51.4583 91.6667 50 91.6667C48.5417 91.6667 47.1528 91.2847 45.8333 90.5209ZM45.8333 52.3958V80.9375L50 83.3333L54.1667 80.9375V52.3958L79.1667 37.9167V33.5417L74.6875 30.9375L50 45.2083L25.3125 30.9375L20.8333 33.5417V37.9167L45.8333 52.3958Z" fill="#D5EDF2"/>
</g>
</g>
<defs>
<clipPath id="clip0_94_147">
<rect width="100" height="100" fill="white"/>
</clipPath>
</defs>
</svg>
