<svg width="100" height="100" viewBox="0 0 100 100" fill="none" xmlns="http://www.w3.org/2000/svg">
<g clip-path="url(#clip0_94_151)">
<mask id="mask0_94_151" style="mask-type:alpha" maskUnits="userSpaceOnUse" x="-1" y="0" width="101" height="101">
<rect x="-1" width="101" height="101" fill="#D9D9D9"/>
</mask>
<g mask="url(#mask0_94_151)">
<path d="M43.1872 63.125H55.8122L53.3924 49.5531C54.7952 48.8517 55.8999 47.8347 56.7064 46.5021C57.513 45.1694 57.9163 43.6965 57.9163 42.0833C57.9163 39.7687 57.0922 37.7873 55.4439 36.1391C53.7957 34.4908 51.8143 33.6667 49.4997 33.6667C47.1851 33.6667 45.2037 34.4908 43.5554 36.1391C41.9071 37.7873 41.083 39.7687 41.083 42.0833C41.083 43.6965 41.4863 45.1694 42.2929 46.5021C43.0995 47.8347 44.2042 48.8517 45.607 49.5531L43.1872 63.125ZM49.4997 92.5833C39.7504 90.1285 31.7019 84.5349 25.3544 75.8026C19.0068 67.0703 15.833 57.3736 15.833 46.7125V21.0417L49.4997 8.41666L83.1663 21.0417V46.7125C83.1663 57.3736 79.9926 67.0703 73.645 75.8026C67.2974 84.5349 59.249 90.1285 49.4997 92.5833Z" fill="#D5EDF2"/>
</g>
</g>
<defs>
<clipPath id="clip0_94_151">
<rect width="100" height="100" fill="white"/>
</clipPath>
</defs>
</svg>
