<svg width="100" height="100" viewBox="0 0 100 100" fill="none" xmlns="http://www.w3.org/2000/svg">
<g clip-path="url(#clip0_98_2)">
<mask id="mask0_98_2" style="mask-type:alpha" maskUnits="userSpaceOnUse" x="40" y="25" width="63" height="63">
<rect x="40.1875" y="25.5" width="62.5" height="62.5" fill="#D9D9D9"/>
</mask>
<g mask="url(#mask0_98_2)">
<path d="M64.276 82.7916L63.2344 74.4583C62.6701 74.2413 62.1385 73.9809 61.6393 73.677C61.1402 73.3732 60.6519 73.0477 60.1745 72.7005L52.4271 75.9557L45.2656 63.5859L51.9714 58.5078C51.928 58.204 51.9062 57.911 51.9062 57.6289V55.8711C51.9062 55.5889 51.928 55.296 51.9714 54.9922L45.2656 49.914L52.4271 37.5442L60.1745 40.7994C60.6519 40.4522 61.151 40.1267 61.6719 39.8229C62.1927 39.5191 62.7135 39.2586 63.2344 39.0416L64.276 30.7083H78.599L79.6406 39.0416C80.2049 39.2586 80.7365 39.5191 81.2357 39.8229C81.7348 40.1267 82.2231 40.4522 82.7005 40.7994L90.4479 37.5442L97.6094 49.914L90.9036 54.9922C90.947 55.296 90.9688 55.5889 90.9688 55.8711V57.6289C90.9688 57.911 90.9253 58.204 90.8385 58.5078L97.5443 63.5859L90.3828 75.9557L82.7005 72.7005C82.2231 73.0477 81.724 73.3732 81.2031 73.677C80.6823 73.9809 80.1615 74.2413 79.6406 74.4583L78.599 82.7916H64.276ZM71.5677 65.8645C74.0851 65.8645 76.2335 64.9748 78.013 63.1953C79.7925 61.4158 80.6823 59.2673 80.6823 56.75C80.6823 54.2326 79.7925 52.0842 78.013 50.3047C76.2335 48.5251 74.0851 47.6354 71.5677 47.6354C69.0069 47.6354 66.8477 48.5251 65.0898 50.3047C63.332 52.0842 62.4531 54.2326 62.4531 56.75C62.4531 59.2673 63.332 61.4158 65.0898 63.1953C66.8477 64.9748 69.0069 65.8645 71.5677 65.8645Z" fill="#D5EDF2"/>
</g>
<path fill-rule="evenodd" clip-rule="evenodd" d="M41.4602 40.1537C37.8663 41.1485 33.7963 41.6458 29.25 41.6458C22.7396 41.6458 17.2057 40.6259 12.6484 38.5859C8.09115 36.546 5.8125 34.0938 5.8125 31.2292C5.8125 28.3646 8.09115 25.9123 12.6484 23.8724C17.2057 21.8325 22.7396 20.8125 29.25 20.8125C35.7604 20.8125 41.2943 21.8325 45.8516 23.8724C49.037 25.2982 51.1091 26.9255 52.068 28.7543C47.7131 31.679 44.0718 35.5842 41.4602 40.1537ZM38.439 47.182C37.6103 47.3453 36.7717 47.4856 35.9232 47.6029C33.2539 47.9718 31.0295 48.1562 29.25 48.1562C27.4705 48.1562 25.2461 47.9718 22.5768 47.6029C19.9076 47.2339 17.3359 46.6372 14.862 45.8125C12.388 44.9878 10.2613 43.9136 8.48177 42.5898C6.70226 41.2661 5.8125 39.6493 5.8125 37.7396V44.25C5.8125 46.1597 6.70226 47.7765 8.48177 49.1003C10.2613 50.424 12.388 51.4983 14.862 52.3229C17.3359 53.1476 19.9076 53.7444 22.5768 54.1133C25.2461 54.4822 27.4705 54.6667 29.25 54.6667C31.0295 54.6667 33.2539 54.4822 35.9232 54.1133C36.33 54.0571 36.7346 53.9955 37.1368 53.9287C37.3449 51.6046 37.7869 49.3477 38.439 47.182ZM37.1712 60.4334C36.7576 60.5024 36.3416 60.5659 35.9232 60.6237C33.2539 60.9926 31.0295 61.1771 29.25 61.1771C27.4705 61.1771 25.2461 60.9926 22.5768 60.6237C19.9076 60.2548 17.3359 59.658 14.862 58.8333C12.388 58.0087 10.2613 56.9345 8.48177 55.6107C6.70226 54.2869 5.8125 52.6701 5.8125 50.7604V57.2708C5.8125 59.1806 6.70226 60.7973 8.48177 62.1211C10.2613 63.4449 12.388 64.5191 14.862 65.3438C17.3359 66.1684 19.9076 66.7652 22.5768 67.1341C25.2461 67.503 27.4705 67.6875 29.25 67.6875C31.0295 67.6875 33.2539 67.503 35.9232 67.1341C36.7616 67.0182 37.5903 66.8799 38.4094 66.7191C37.8071 64.6963 37.3879 62.5947 37.1712 60.4334Z" fill="#D5EDF2"/>
</g>
<defs>
<clipPath id="clip0_98_2">
<rect width="100" height="100" fill="white"/>
</clipPath>
</defs>
</svg>
