<svg width="24" height="24" viewBox="0 0 24 24" fill="none" xmlns="http://www.w3.org/2000/svg">
<mask id="mask0_201_15" style="mask-type:alpha" maskUnits="userSpaceOnUse" x="0" y="0" width="24" height="24">
<rect width="24" height="24" fill="#D9D9D9"/>
</mask>
<g mask="url(#mask0_201_15)">
<path d="M12.179 12.2366C10.804 12.2366 9.62687 11.7715 8.64771 10.8413C7.66854 9.91105 7.17896 8.79282 7.17896 7.48657C7.17896 6.18032 7.66854 5.06209 8.64771 4.13188C9.62687 3.20168 10.804 2.73657 12.179 2.73657C13.554 2.73657 14.731 3.20168 15.7102 4.13188C16.6894 5.06209 17.179 6.18032 17.179 7.48657C17.179 8.79282 16.6894 9.91105 15.7102 10.8413C14.731 11.7715 13.554 12.2366 12.179 12.2366ZM2.17896 21.7366V18.4116C2.17896 17.7387 2.36125 17.1202 2.72583 16.5561C3.09041 15.992 3.57479 15.5616 4.17896 15.2647C5.47062 14.6512 6.78312 14.191 8.11646 13.8842C9.44979 13.5775 10.804 13.4241 12.179 13.4241C13.554 13.4241 14.9081 13.5775 16.2415 13.8842C17.5748 14.191 18.8873 14.6512 20.179 15.2647C20.7831 15.5616 21.2675 15.992 21.6321 16.5561C21.9967 17.1202 22.179 17.7387 22.179 18.4116V21.7366H2.17896Z" fill="#D5EDF2"/>
</g>
</svg>
