<svg width="126" height="101" viewBox="0 0 126 101" fill="none" xmlns="http://www.w3.org/2000/svg">
<path d="M54.4444 10.9189L30.3333 57.3243L18.2778 60.444C19.5741 57.5843 21.1296 55.2445 22.9444 53.4247C25.0185 51.6049 27.3519 50.695 29.9444 50.695C35.3889 50.695 40.3148 52.9047 44.7222 57.3243C49.3889 61.7439 51.7222 67.4633 51.7222 74.4826C51.7222 81.5019 49.1296 87.7413 43.9444 93.2008C39.0185 98.4002 33.0556 101 26.0556 101C19.0556 101 12.963 98.4002 7.77777 93.2008C2.59259 88.0013 0 81.7619 0 74.4826C0 71.3629 0.648147 67.8533 1.94444 63.9537C3.24074 59.7941 5.44444 54.5946 8.55556 48.3552L34.6111 0L54.4444 10.9189ZM126 10.9189L101.889 57.3243L89.8333 60.444C91.1296 57.5843 92.6852 55.2445 94.5 53.4247C96.5741 51.6049 98.9074 50.695 101.5 50.695C106.944 50.695 111.87 52.9047 116.278 57.3243C120.944 61.7439 123.278 67.4633 123.278 74.4826C123.278 81.5019 120.685 87.7413 115.5 93.2008C110.574 98.4002 104.611 101 97.6111 101C90.6111 101 84.5185 98.4002 79.3333 93.2008C74.1481 88.0013 71.5556 81.7619 71.5556 74.4826C71.5556 71.3629 72.2037 67.8533 73.5 63.9537C74.7963 59.7941 77 54.5946 80.1111 48.3552L106.167 0L126 10.9189Z" fill="white"/>
</svg>
