<svg width="25" height="25" viewBox="0 0 25 25" fill="none" xmlns="http://www.w3.org/2000/svg">
<path d="M16.0796 8.91532C15.2661 8.91253 14.4601 9.07017 13.7076 9.37921C12.9551 9.68826 12.271 10.1427 11.6943 10.7164C11.1176 11.2901 10.6597 11.9719 10.3468 12.7228C10.0338 13.4737 9.87206 14.2789 9.87067 15.0924V21.3332C9.87067 21.5866 9.97131 21.8295 10.1504 22.0087C10.3296 22.1878 10.5725 22.2884 10.8259 22.2884H13.0547C13.3081 22.2884 13.551 22.1878 13.7302 22.0087C13.9093 21.8295 14.01 21.5866 14.01 21.3332V15.0924C14.0098 14.8031 14.0705 14.517 14.1883 14.2527C14.3061 13.9884 14.4782 13.752 14.6935 13.5587C14.9088 13.3654 15.1625 13.2197 15.4379 13.131C15.7133 13.0423 16.0043 13.0127 16.2919 13.044C16.8077 13.109 17.2818 13.361 17.6241 13.7523C17.9665 14.1435 18.1533 14.6468 18.1493 15.1667V21.3332C18.1493 21.5866 18.2499 21.8295 18.429 22.0087C18.6082 22.1878 18.8511 22.2884 19.1045 22.2884H21.3333C21.5867 22.2884 21.8296 22.1878 22.0088 22.0087C22.1879 21.8295 22.2886 21.5866 22.2886 21.3332V15.0924C22.2872 14.2789 22.1254 13.4737 21.8125 12.7228C21.4996 11.9719 21.0417 11.2901 20.465 10.7164C19.8883 10.1427 19.2041 9.68826 18.4516 9.37921C17.6991 9.07017 16.8931 8.91253 16.0796 8.91532Z" fill="#D5EDF2"/>
<path d="M7.00503 9.87061H4.13937C3.61181 9.87061 3.18414 10.2983 3.18414 10.8258V21.3333C3.18414 21.8608 3.61181 22.2885 4.13937 22.2885H7.00503C7.53259 22.2885 7.96026 21.8608 7.96026 21.3333V10.8258C7.96026 10.2983 7.53259 9.87061 7.00503 9.87061Z" fill="#D5EDF2"/>
<path d="M5.5722 7.9602C6.89109 7.9602 7.96026 6.89103 7.96026 5.57214C7.96026 4.25325 6.89109 3.18408 5.5722 3.18408C4.25331 3.18408 3.18414 4.25325 3.18414 5.57214C3.18414 6.89103 4.25331 7.9602 5.5722 7.9602Z" fill="#D5EDF2"/>
</svg>
