<svg width="25" height="25" viewBox="0 0 25 25" fill="none" xmlns="http://www.w3.org/2000/svg">
<path d="M12.3869 1.03232C9.40733 1.00204 6.53763 2.15602 4.40849 4.24064C2.27935 6.32526 1.065 9.16994 1.03232 12.1495C1.0438 14.5042 1.80128 16.7947 3.19595 18.692C4.59063 20.5893 6.55073 21.9957 8.79474 22.7093C9.36247 22.8125 9.56892 22.4719 9.56892 22.1725C9.56892 21.8732 9.56892 21.2125 9.56892 20.2835C6.41027 20.9545 5.73932 18.7971 5.73932 18.7971C5.52905 18.1199 5.08202 17.5409 4.47999 17.1662C3.44775 16.4849 4.56257 16.4952 4.56257 16.4952C4.91936 16.5429 5.26073 16.6708 5.56106 16.8692C5.86139 17.0677 6.1129 17.3315 6.29672 17.641C6.61706 18.1965 7.14268 18.604 7.76045 18.7758C8.37822 18.9476 9.03875 18.87 9.59988 18.5597C9.65759 17.9944 9.91357 17.4678 10.3224 17.0733C7.80379 16.7946 5.16126 15.8449 5.16126 11.5818C5.13874 10.4697 5.54964 9.39252 6.30705 8.57797C5.9621 7.62322 6.00283 6.57162 6.42059 5.64642C6.42059 5.64642 7.38057 5.34707 9.5173 6.78188C11.3773 6.28624 13.3346 6.28624 15.1946 6.78188C17.3623 5.34707 18.2913 5.64642 18.2913 5.64642C18.7091 6.57162 18.7498 7.62322 18.4049 8.57797C19.1799 9.37759 19.613 10.4476 19.6126 11.5611C19.6126 15.8346 16.9494 16.7739 14.4514 17.0526C14.7249 17.3182 14.9362 17.6411 15.0701 17.998C15.2039 18.355 15.257 18.7372 15.2256 19.1171V22.1622C15.2256 22.1622 15.432 22.8125 15.9997 22.699C18.2374 21.9809 20.1909 20.5742 21.5813 18.6796C22.9716 16.785 23.7277 14.4995 23.7415 12.1495C23.7088 9.16994 22.4945 6.32526 20.3654 4.24064C18.2362 2.15602 15.3665 1.00204 12.3869 1.03232Z" fill="#D5EDF2"/>
</svg>
